<svg width="400" height="400" viewBox="0 0 400 400" fill="none" xmlns="http://www.w3.org/2000/svg">
<g clip-path="url(#clip0_3222_100)">
<circle cx="200" cy="200" r="200" fill="#1A1A1A"/>
<g clip-path="url(#clip1_3222_100)">
<path d="M199.995 63.6416C228.41 99.685 243.579 144.132 243.029 189.741V200.628L252.404 206.328C264.517 213.655 273.551 225.019 277.859 238.349C274.077 235.566 270.119 233.021 266.011 230.728L241.011 216.703L236.518 245.009C236.129 247.511 235.608 249.99 234.956 252.438H164.904C163.862 249.236 163.016 246.034 162.234 242.704L156.57 217.087L133.524 229.895C129.673 232.047 125.956 234.42 122.391 237.004C126.783 223.828 135.629 212.528 147.456 204.983L156.375 199.283V189.164C156.536 143.741 171.887 99.6317 200.06 63.6416H199.995ZM200.06 37C198.599 37.0035 197.188 37.5267 196.089 38.473L195.503 38.9853C157.961 80.2879 137.114 133.696 136.909 189.1C120.978 199.268 109.186 214.619 103.592 232.47C97.9993 250.322 98.9612 269.54 106.31 286.765C114.052 269.946 126.993 255.961 143.289 246.803C144.924 253.767 147.1 260.597 149.8 267.232C150.142 268.508 150.901 269.637 151.959 270.447C153.018 271.257 154.318 271.703 155.659 271.715H246.024C247.846 271.715 249.669 269.986 250.581 267.296C253.216 260.988 255.052 254.384 256.05 247.635C272.377 256.755 285.329 270.752 293.029 287.598C300.821 270.457 302.027 251.118 296.424 233.17C290.821 215.221 278.789 199.881 262.56 189.997C263.204 134.266 242.468 80.3438 204.487 38.9853C203.921 38.3633 203.229 37.8651 202.455 37.5231C201.682 37.1811 200.843 37.0029 199.995 37H200.06Z" fill="#4EA8DE"/>
<path d="M199.995 183.785C194.994 183.785 190.106 182.328 185.945 179.599C181.785 176.87 178.539 172.991 176.616 168.45C174.694 163.909 174.181 158.91 175.142 154.083C176.104 149.255 178.497 144.816 182.019 141.325C185.541 137.833 190.036 135.445 194.935 134.462C199.835 133.48 204.921 133.946 209.552 135.802C214.183 137.658 218.151 140.821 220.957 144.892C223.764 148.964 225.282 153.761 225.32 158.68V158.68C225.398 161.868 224.837 165.04 223.668 168.014C222.5 170.988 220.747 173.706 218.51 176.014C216.273 178.322 213.595 180.173 210.631 181.462C207.666 182.752 204.472 183.454 201.232 183.529C200.822 183.593 200.404 183.593 199.995 183.529V183.785Z" fill="#4EA8DE"/>
<path d="M235.216 287.662C233.587 287.61 231.964 287.88 230.442 288.454C228.921 289.028 227.531 289.895 226.354 291.005C225.178 292.114 224.238 293.444 223.591 294.915C222.944 296.386 222.602 297.97 222.586 299.573V337.358C222.586 340.653 223.917 343.814 226.285 346.144C228.654 348.474 231.866 349.783 235.216 349.783C238.566 349.783 241.778 348.474 244.147 346.144C246.516 343.814 247.846 340.653 247.846 337.358V300.086C247.898 298.489 247.627 296.897 247.047 295.405C246.468 293.912 245.592 292.547 244.471 291.391C243.35 290.235 242.006 289.309 240.518 288.669C239.029 288.029 237.426 287.686 235.802 287.662H235.216Z" fill="#5E60CE"/>
<path d="M164.904 287.662C163.247 287.575 161.59 287.818 160.03 288.375C158.471 288.931 157.041 289.791 155.826 290.902C154.611 292.014 153.636 293.354 152.959 294.844C152.281 296.333 151.915 297.942 151.883 299.573V337.358C151.883 340.654 153.213 343.814 155.582 346.144C157.951 348.474 161.163 349.783 164.513 349.783C167.863 349.783 171.075 348.474 173.444 346.144C175.813 343.814 177.143 340.654 177.143 337.358V300.086C177.195 298.489 176.924 296.897 176.344 295.405C175.765 293.912 174.889 292.547 173.768 291.391C172.647 290.235 171.303 289.309 169.814 288.669C168.326 288.029 166.723 287.686 165.099 287.662H164.904Z" fill="#5E60CE"/>
<path d="M199.083 287.662C197.459 287.628 195.843 287.909 194.329 288.489C192.815 289.069 191.432 289.937 190.26 291.044C189.087 292.15 188.147 293.472 187.494 294.936C186.841 296.4 186.487 297.975 186.453 299.573V351.64C186.453 354.935 187.784 358.095 190.152 360.425C192.521 362.755 195.734 364.064 199.083 364.064C202.433 364.064 205.646 362.755 208.014 360.425C210.383 358.095 211.714 354.935 211.714 351.64V300.406C211.766 298.809 211.494 297.218 210.914 295.725C210.335 294.232 209.459 292.868 208.338 291.711C207.217 290.555 205.873 289.63 204.385 288.989C202.896 288.349 201.293 288.006 199.669 287.982L199.083 287.662Z" fill="#5E60CE"/>
</g>
</g>
<defs>
<clipPath id="clip0_3222_100">
<rect width="400" height="400" fill="white"/>
</clipPath>
<clipPath id="clip1_3222_100">
<rect width="200" height="327" fill="white" transform="translate(100 37)"/>
</clipPath>
</defs>
</svg>
